<?xml version="1.0" encoding="UTF-8"?>
<svg width="68px" height="71px" viewBox="0 0 68 71" version="1.1" xmlns="http://www.w3.org/2000/svg" xmlns:xlink="http://www.w3.org/1999/xlink">
    <!-- Generator: Sketch 40.1 (33804) - http://www.bohemiancoding.com/sketch -->
    <title>icon_meats</title>
    <desc>Created with Sketch.</desc>
    <defs></defs>
    <g id="Page-1" stroke="none" stroke-width="1" fill="none" fill-rule="evenodd">
        <g id="icon_meats" transform="translate(-2.000000, -3.000000)" stroke="#979797">
            <path d="M61.5,5 C61.5,5 63,18.5 63,20.5 C63,22.5 62,30 58.5,31 C55,32 55,34 54.5,35 C54,36 48.5,45.5 45,47.5 C41.5,49.5 34,53.5 29.5,54.5 C25,55.5 18.5,56 18.5,56 L15,65 C15,65 10.5,60.5 9,59.5 C7.5,58.5 4,55.5 4,55.5 C4,55.5 9,52 11.5,52 C14,52 15.5,51.5 15.5,51.5 L20.5,37.5 L15.5,36 C15.5,36 15.5,27.5 17.5,23.5 C19.5,19.5 23.5,14 23.5,14 L33,15.5 C33,15.5 47.5,7 53.5,5.5 C59.5,4 61.5,5 61.5,5 Z" id="Path-19"></path>
            <g id="Group-2" fill-rule="evenodd" transform="translate(3.000000, 4.000000)">
                <g id="Group-12">
                    <path d="M41.6209643,21.3511996 C41.6209643,21.3511996 46.1127135,28.6762389 52.1017125,27.943735 C58.0907114,27.2112311 60.336586,22.0837035 60.336586,13.2936563 L58.9593315,1.83908539 C58.89306,1.28790744 58.3970287,0.865465987 57.8512728,0.903435073 C57.8512728,0.903435073 49.502988,1.22178284 41.6209643,4.5036091 C33.7389406,7.78543537 31.8888411,9.63113665 25.1512172,18.4211839 C18.4135934,27.2112311 13.1732194,47.7213412 13.1732194,47.7213412" id="Path-18" stroke-width="3"></path>
                    <path d="M1.02333239,51.8259594 C0.551341055,51.5627801 0.568071158,51.1474843 1.06427253,50.9050212 C1.06427253,50.9050212 11.2686293,45.5569583 14.228606,48.4531948 C17.1885827,51.3494312 12.4164442,61.305795 12.4164442,61.305795 C12.191211,61.8053491 11.7588344,61.8485294 11.4385524,61.3919812 C11.4385524,61.3919812 8.81024312,57.5115116 6.82866414,55.6937858 C4.86360747,53.8912161 1.02333239,51.8259594 1.02333239,51.8259594 Z" id="Path-20" stroke-width="3"></path>
                    <path d="M30.0279655,12.0184484 L20.2958422,9.82093664 C20.2958422,9.82093664 15.4972497,14.8724725 14,20 C12.5027503,25.1275275 12.0609687,31.7960547 12.0609687,31.7960547 L17.3013427,33.2610625" id="Path-21" stroke-width="3"></path>
                    <path d="M16.5099715,52.1343408 C16.5099715,52.1343408 25.4934699,50.6693329 29.9852191,49.204325 C34.4769683,47.7393172 43.4604667,42.6117896 47.9522159,36.7517582 C52.4439651,30.8917267 51.6953403,28.6942149 51.6953403,28.6942149" id="Path-22" stroke-width="3"></path>
                    <ellipse id="Oval-2" stroke-width="2" cx="45.0862374" cy="13.8611452" rx="2.99449947" ry="2.93001574"></ellipse>
                    <path d="M41.4352812,30.9146006 C41.4352812,30.9146006 49.466722,40.4371517 44.9749728,45.5646792 C40.4832236,50.6922068 37.4887242,46.2971832 36.7400993,41.9021596 C35.9914744,37.507136 37.4887242,34.5771202 37.4887242,34.5771202" id="Path-24" stroke-width="2"></path>
                </g>
            </g>
            <g id="Group-3" fill-rule="evenodd" transform="translate(59.202332, 60.995349) rotate(20.000000) translate(-59.202332, -60.995349) translate(49.702332, 48.495349)">
                <path d="M9.26035723,24.2032064 C14.3747113,24.2032064 18.5207145,19.8625531 18.5207145,13.4696105 C18.5207145,7.07666792 13.2591478,2.16715534e-13 9.26035723,2.16715534e-13 C5.26156661,2.17387308e-13 -5.82645043e-13,7.07666792 -5.82645043e-13,13.4696105 C-5.82645043e-13,19.8625531 4.14600315,24.2032064 9.26035723,24.2032064 Z" id="Oval-3" stroke-width="3"></path>
                <ellipse id="Oval-8" stroke-width="2" cx="9.37874248" cy="14.8244639" rx="4.48382264" ry="4.48382264"></ellipse>
            </g>
        </g>
    </g>
</svg>