<?xml version="1.0" encoding="UTF-8" standalone="no"?>
<svg width="80px" height="80px" viewBox="0 0 80 80" version="1.1" xmlns="http://www.w3.org/2000/svg" xmlns:xlink="http://www.w3.org/1999/xlink">
    <!-- Generator: Sketch 40.3 (33839) - http://www.bohemiancoding.com/sketch -->
    <title>icon_meats</title>
    <desc>Created with Sketch.</desc>
    <defs></defs>
    <g id="Symbols" stroke="none" stroke-width="1" fill="none" fill-rule="evenodd">
        <g id="icon_meats" stroke="#979797">
            <path d="M52.099,74.7456 C58.325,71.7866 55.816,65.7366 53.133,65.3766 C50.659,65.0446 51.138,67.7816 49.222,68.6926 C47.307,69.6026 45.486,67.5026 44.181,69.6306 C42.766,71.9376 45.873,77.7046 52.099,74.7456 L52.099,74.7456 Z" id="Stroke-1" stroke-width="1.686" stroke-linecap="round" fill="#FFFFFF"></path>
            <path d="M29.9255,72.6039 C34.6015,77.6679 39.6325,73.4729 39.1785,70.8049 C38.7595,68.3439 36.2885,69.6149 34.8495,68.0569 C33.4105,66.4989 34.8735,64.1369 32.4545,63.5229 C29.8305,62.8589 25.2495,67.5399 29.9255,72.6039 L29.9255,72.6039 Z" id="Stroke-3" stroke-width="1.686" stroke-linecap="round" fill="#FFFFFF"></path>
            <path d="M44.5026,66.0928 C51.1206,64.1648 49.6086,57.7918 47.0186,57.0088 C44.6286,56.2868 44.6646,59.0648 42.6286,59.6578 C40.5916,60.2508 39.1296,57.8878 37.5026,59.7808 C35.7376,61.8328 37.8846,68.0208 44.5026,66.0928 L44.5026,66.0928 Z" id="Stroke-5" stroke-width="1.686" stroke-linecap="round" fill="#FFFFFF"></path>
            <path d="M65.8908698,58.9588 C70.9768698,59.0598 75.1858698,54.8248 75.3128698,48.4668 C75.4388698,42.1088 70.3458698,34.9668 66.3688698,34.8878 C62.3918698,34.8088 57.0188698,41.7428 56.8928698,48.1008 C56.7668698,54.4588 60.8048698,58.8578 65.8908698,58.9588 L65.8908698,58.9588 Z" id="Stroke-7" stroke-width="3" fill="#FFFFFF"></path>
            <path d="M66.1045,54.0929 C68.5675,54.1419 70.6035,52.1849 70.6525,49.7219 C70.7015,47.2589 68.7445,45.2229 66.2815,45.1739 C63.8185,45.1249 61.7825,47.0819 61.7335,49.5449 C61.6845,52.0079 63.6415,54.0439 66.1045,54.0929 L66.1045,54.0929 Z" id="Stroke-9" stroke-width="1.592"></path>
            <path d="M59.5,4.32653061 C59.5,4.32653061 61,17.8265306 61,19.8265306 C61,21.8265306 60,29.3265306 56.5,30.3265306 C53,31.3265306 53,33.3265306 52.5,34.3265306 C52,35.3265306 46.5,44.8265306 43,46.8265306 C39.5,48.8265306 32,52.8265306 27.5,53.8265306 C23,54.8265306 16.5,55.3265306 16.5,55.3265306 L13,64.3265306 C13,64.3265306 8.5,59.8265306 7,58.8265306 C5.5,57.8265306 2,54.8265306 2,54.8265306 C2,54.8265306 7,51.3265306 9.5,51.3265306 C12,51.3265306 13.5,50.8265306 13.5,50.8265306 L18.5,36.8265306 L13.5,35.3265306 C13.5,35.3265306 13.5,26.8265306 15.5,22.8265306 C17.5,18.8265306 21.5,13.3265306 21.5,13.3265306 L31,14.8265306 C31,14.8265306 45.5,6.32653061 51.5,4.82653061 C57.5,3.32653061 59.5,4.32653061 59.5,4.32653061 Z" id="Path-19" fill="#FFFFFF"></path>
            <g id="Group-2" transform="translate(1.000000, 4.000000)">
                <g id="Group-12">
                    <path d="M41.6209643,21.3511996 C41.6209643,21.3511996 46.1127135,28.6762389 52.1017125,27.943735 C58.0907114,27.2112311 60.336586,22.0837035 60.336586,13.2936563 L58.9593315,1.83908539 C58.89306,1.28790744 58.3970287,0.865465987 57.8512728,0.903435073 C57.8512728,0.903435073 49.502988,1.22178284 41.6209643,4.5036091 C33.7389406,7.78543537 31.8888411,9.63113665 25.1512172,18.4211839 C18.4135934,27.2112311 13.1732194,47.7213412 13.1732194,47.7213412" id="Path-18" stroke-width="3"></path>
                    <path d="M1.02333239,51.8259594 C0.551341055,51.5627801 0.568071158,51.1474843 1.06427253,50.9050212 C1.06427253,50.9050212 11.2686293,45.5569583 14.228606,48.4531948 C17.1885827,51.3494312 12.4164442,61.305795 12.4164442,61.305795 C12.191211,61.8053491 11.7588344,61.8485294 11.4385524,61.3919812 C11.4385524,61.3919812 8.81024312,57.5115116 6.82866414,55.6937858 C4.86360747,53.8912161 1.02333239,51.8259594 1.02333239,51.8259594 Z" id="Path-20" stroke-width="3"></path>
                    <path d="M30.0279655,12.0184484 L20.2958422,9.82093664 C20.2958422,9.82093664 15.4972497,14.8724725 14,20 C12.5027503,25.1275275 12.0609687,31.7960547 12.0609687,31.7960547 L17.3013427,33.2610625" id="Path-21" stroke-width="3"></path>
                    <path d="M16.5099715,52.1343408 C16.5099715,52.1343408 25.4934699,50.6693329 29.9852191,49.204325 C34.4769683,47.7393172 43.4604667,42.6117896 47.9522159,36.7517582 C52.4439651,30.8917267 51.6953403,28.6942149 51.6953403,28.6942149" id="Path-22" stroke-width="3"></path>
                    <ellipse id="Oval-2" stroke-width="2" cx="45.0862374" cy="13.8611452" rx="2.99449947" ry="2.93001574"></ellipse>
                    <path d="M41.4352812,30.9146006 C41.4352812,30.9146006 49.466722,40.4371517 44.9749728,45.5646792 C40.4832236,50.6922068 37.4887242,46.2971832 36.7400993,41.9021596 C35.9914744,37.507136 37.4887242,34.5771202 37.4887242,34.5771202" id="Path-24" stroke-width="2" fill="#FFFFFF"></path>
                </g>
            </g>
        </g>
    </g>
</svg>