<?xml version="1.0" encoding="UTF-8"?>
<svg width="78px" height="62px" viewBox="0 0 78 62" version="1.1" xmlns="http://www.w3.org/2000/svg" xmlns:xlink="http://www.w3.org/1999/xlink">
    <!-- Generator: Sketch 40.1 (33804) - http://www.bohemiancoding.com/sketch -->
    <title>icon_fruit</title>
    <desc>Created with Sketch.</desc>
    <defs></defs>
    <g id="Page-1" stroke="none" stroke-width="1" fill="none" fill-rule="evenodd">
        <g id="icon_fruit" transform="translate(-2.000000, -8.000000)" stroke="#979797">
            <path d="M35.0606935,52.3651809 C35.0613824,52.3231937 35.0617284,52.2807905 35.0617284,52.2379679 C35.0617284,44.0561497 28.2404528,39.4438503 28.2404528,30.459893 C28.2404528,25.0847153 24.7750722,20.7272727 19.3733504,20.7272727 C13.9716285,20.7272727 10.506248,25.0847153 10.506248,30.459893 C10.506248,39.4438503 4,43.6016043 4,52.2379679 C4,52.2823495 4.00032838,52.3263028 4.00098215,52.369831 C4.00032796,52.4282948 4,52.4868366 4,52.5454545 C4,61.0807643 10.9534048,68 19.5308642,68 C28.1083236,68 35.0617284,61.0807643 35.0617284,52.5454545 C35.0617284,52.4852824 35.0613828,52.4251905 35.0606935,52.3651809 Z" id="Combined-Shape" stroke-width="3"></path>
            <path d="M19.5308642,20.7272727 L19.5308642,16.1818182" id="Path-11" stroke-width="2"></path>
            <path d="M15.5309953,17.5964699 C15.8540952,18.0445016 16.3871399,18.0577831 16.7010435,17.5964699 C16.7010435,17.5964699 18.0658854,16.1490964 18.0658854,13.3629639 C18.0658854,10.5768313 16.7010435,9.1294578 16.7010435,9.1294578 C16.3779436,8.68142609 15.8448989,8.66814455 15.5309953,9.1294578 C15.5309953,9.1294578 14.1661535,10.5768313 14.1661535,13.3629639 C14.1661535,16.1490964 15.5309953,17.5964699 15.5309953,17.5964699 Z" id="Oval-7" stroke-width="2" transform="translate(16.116019, 13.362964) rotate(-50.000000) translate(-16.116019, -13.362964) "></path>
            <path d="M23.6166237,18.5099356 C23.9414633,18.9521857 24.4848549,18.9521382 24.7929718,18.5099356 C24.7929718,18.5099356 26.4887484,16.6651102 26.4887484,13.4016094 C26.4887484,10.1381086 24.7929718,8.29328314 24.7929718,8.29328314 C24.4681322,7.85103303 23.9247406,7.85108054 23.6166237,8.29328314 C23.6166237,8.29328314 21.9208471,10.1381086 21.9208471,13.4016094 C21.9208471,16.6651102 23.6166237,18.5099356 23.6166237,18.5099356 Z" id="Oval-7-Copy" stroke-width="2" transform="translate(24.204798, 13.401609) rotate(47.000000) translate(-24.204798, -13.401609) "></path>
            <path d="M8.56790123,51.6363636 C8.56790123,57.6612882 13.4761869,62.5454545 19.5308642,62.5454545" id="Oval" stroke-width="2" stroke-linecap="round"></path>
            <path d="M55.7775612,33.8484848 C55.7775612,33.8484848 77.6233485,27.9090909 77.6233485,45.7272727 C77.6233485,63.5454545 65.9471518,68 62.1806368,68 C58.4141217,68 58.0374702,66.8863636 55.7775612,66.8863636 C53.5176522,66.8863636 51.2577431,68 48.6211826,68 C45.984622,68 35.0617284,63.1742424 35.0617284,45.7272727 C35.0617284,28.280303 54.2709552,33.8484848 54.2709552,33.8484848" id="Path-12" stroke-width="3"></path>
            <path d="M49.2991553,36.2789474 C49.2991553,36.2789474 51.6304299,38.576555 55.1273417,38.576555 C58.6242536,38.576555 60.3727096,35.7045455 60.3727096,35.7045455" id="Path-13" stroke-width="2" stroke-linecap="round"></path>
            <path d="M54.5129264,31.417633 C54.5129264,31.417633 55.050608,27.5485497 52.0154231,24.9784085 C48.9802382,22.4082673 44.654321,23 44.654321,23 C43.7407407,23 43.7407407,23.4545455 43.7407407,24.8181818 C43.7407407,24.8181818 43.6058237,27.5835173 46.6410086,30.1536585 C49.6761935,32.7237996 53.5436236,32.5833797 53.5436236,32.5833797 C54.2507031,32.6335556 54.6988092,32.0930959 54.5129264,31.417633 Z" id="Oval-7" stroke-width="2"></path>
            <path d="M55.0761524,38.3030303 C55.0761524,38.3030303 54.2709552,29.7651515 57.6608187,26.4242424" id="Path-14" stroke-width="3"></path>
            <path d="M54.2709552,31.9924242 C54.2709552,31.9924242 49.7511371,27.5378788 47.1145766,26.0530303" id="Path-15" stroke-width="1" stroke-linecap="round"></path>
        </g>
    </g>
</svg>