<?xml version="1.0" encoding="UTF-8" standalone="no"?>
<svg width="37px" height="36px" viewBox="0 0 37 36" version="1.1" xmlns="http://www.w3.org/2000/svg" xmlns:xlink="http://www.w3.org/1999/xlink">
    <!-- Generator: sketchtool 40.3 (33839) - http://www.bohemiancoding.com/sketch -->
    <title>BFADFA89-4048-4046-BDBB-BA2C08FC3C76</title>
    <desc>Created with sketchtool.</desc>
    <defs></defs>
    <g id="Main" stroke="none" stroke-width="1" fill="none" fill-rule="evenodd">
        <g id="food_detail" transform="translate(-866.000000, -64.000000)">
            <g id="Modal" transform="translate(97.000000, 40.000000)">
                <g id="icn_close" transform="translate(769.000000, 24.000000)">
                    <g>
                        <path d="M18.0304569,0 C8.07231749,0 0,8.05868182 0,18 C0,27.9413182 8.07231749,36 18.0304569,36 C27.9885962,36 36.0609137,27.9413182 36.0609137,18 C36.0609137,8.05868182 27.9885962,0 18.0304569,0 M18.0304569,1.63636364 C27.0686331,1.63636364 34.4217813,8.97709091 34.4217813,18 C34.4217813,27.0229091 27.0686331,34.3636364 18.0304569,34.3636364 C8.99228057,34.3636364 1.63913244,27.0229091 1.63913244,18 C1.63913244,8.97709091 8.99228057,1.63636364 18.0304569,1.63636364" id="Fill-3" fill="#00447E"></path>
                        <path d="M18.0306208,18.4092545 C15.4352936,15.8183114 12.8399152,13.227317 10.2445368,10.6363227 L18.0306208,18.4092545 C15.4353482,21.0002455 12.8400757,23.5912364 10.2447007,26.1822273 L18.0306208,18.4092545 C20.6260162,21.0002659 23.2212068,23.5910727 25.816295,26.1817773 L18.0306208,18.4092545 L25.8164589,10.6363636 C23.2211112,13.2273273 20.625866,15.8182909 18.0306208,18.4092545 Z" id="Combined-Shape" stroke="#00447E" stroke-width="3" stroke-linecap="round" stroke-linejoin="round"></path>
                    </g>
                </g>
            </g>
        </g>
    </g>
</svg>